<svg width="64" height="64"
  xmlns="http://www.w3.org/2000/svg" viewBox="0 0 1000 1000">
  <rect fill="none" width="1000" height="1000" />
  <path fill="#5c8dbc" d="M944.8,294c0-16.8-3.6-31.7-10.9-44.4q-10.65-18.75-32.2-31.4Q724.1,115.75,546.3,13.4c-31.9-18.4-62.8-17.7-94.5,1-47.1,27.8-283.2,163-353.5,203.8C69.3,235,55.2,260.6,55.2,294V706.1c0,16.4,3.4,31,10.4,43.6,7.1,12.9,18,23.7,32.7,32.2,70.3,40.7,306.4,176,353.6,203.8,31.7,18.7,62.7,19.4,94.6.9Q724.1,884,902,781.8c14.7-8.5,25.5-19.3,32.7-32.2,6.9-12.6,10.4-27.1,10.4-43.6-.2,0-.2-274.6-.3-412" />
  <path fill="#1a4674" d="M501.4,498.7,65.5,749.6c7.1,12.9,18,23.7,32.7,32.2,70.3,40.7,306.4,176,353.6,203.8,31.7,18.7,62.7,19.4,94.6.9Q724,883.9,901.9,781.7c14.7-8.5,25.5-19.3,32.7-32.2L501.4,498.7" />
  <path fill="#1a4674" d="M372.3,573a147.08,147.08,0,0,0,255.9-.9L501.4,498.6,372.3,573" />
  <path fill="#1b598e" d="M944.8,294c0-16.8-3.6-31.7-10.9-44.4L501.4,498.7,934.5,749.6c6.9-12.6,10.4-27.1,10.4-43.6,0,0,0-274.6-.1-412" />
  <path fill="#fff" d="M921,516.6H887.2v33.9H853.3V516.6H819.5V482.8h33.8V449h33.9v33.8H921v33.8m-123.5,0H763.7v33.9H729.9V516.6H696V482.8h33.8V449h33.8v33.8h33.8v33.8" />
  <path fill="#fff" d="M628.2,572.1a147,147,0,1,1-.9-145.9l128.6-74.1C704.7,263.9,609.3,204.5,500,204.5c-163.2,0-295.5,132.3-295.5,295.5a293.94,293.94,0,0,0,39.1,147c51,88.7,146.7,148.4,256.3,148.4,109.9,0,205.7-60,256.6-148.9L628.2,572.1" />
</svg>